<svg xmlns="http://www.w3.org/2000/svg" width="251.44371032714844" height="255.25006103515625" viewBox="-29.30000877380371 -20.7699031829834 251.44371032714844 255.25006103515625"><title>Neo4j Graph Visualization</title><desc>Created using Neo4j (http://www.neo4j.com/)</desc><g class="layer relationships"><g class="relationship" transform="translate(149.46825399963637 205.48017163099053) rotate(234.23145795879168)"><path class="outline" fill="#A5ABB6" stroke="none" d="M 25 0.5 L 28.997937452474844 0.5 L 28.997937452474844 -0.5 L 25 -0.5 Z M 75.88856245247484 0.5 L 79.88649990494969 0.5 L 79.88649990494969 3.5 L 86.88649990494969 0 L 79.88649990494969 -3.5 L 79.88649990494969 -0.5 L 75.88856245247484 -0.5 Z"/><text text-anchor="middle" pointer-events="none" font-size="8px" fill="#000000" x="52.443249952474844" y="3" transform="rotate(180 52.443249952474844 0)" font-family="sans-serif">DIRECTED</text></g><g class="relationship" transform="translate(193.14372561494187 90.1832063166465) rotate(527.3335220621628)"><path class="outline" fill="#A5ABB6" stroke="none" d="M 25 0.5 L 34.510913983146644 0.5 L 34.510913983146644 -0.5 L 25 -0.5 Z M 70.28435148314665 0.5 L 79.79526546629329 0.5 L 79.79526546629329 3.5 L 86.79526546629329 0 L 79.79526546629329 -3.5 L 79.79526546629329 -0.5 L 70.28435148314665 -0.5 Z"/><text text-anchor="middle" pointer-events="none" font-size="8px" fill="#000000" x="52.397632733146644" y="3" transform="rotate(180 52.397632733146644 0)" font-family="sans-serif">WROTE</text></g><g class="relationship" transform="translate(118.1795418881379 8.230097221594553) rotate(467.76461631382074)"><path class="outline" fill="#A5ABB6" stroke="none" d="M 25 0.5 L 29.61765254994407 0.5 L 29.61765254994407 -0.5 L 25 -0.5 Z M 75.18015254994407 0.5 L 79.79780509988814 0.5 L 79.79780509988814 3.5 L 86.79780509988814 0 L 79.79780509988814 -3.5 L 79.79780509988814 -0.5 L 75.18015254994407 -0.5 Z"/><text text-anchor="middle" pointer-events="none" font-size="8px" fill="#000000" x="52.39890254994407" y="3" transform="rotate(180 52.39890254994407 0)" font-family="sans-serif">ACTED_IN</text></g><g class="relationship" transform="translate(-0.3000078376068746 41.187047645679186) rotate(401.06532913462297)"><path class="outline" fill="#A5ABB6" stroke="none" d="M 25 0.5 L 29.669405252824504 0.5 L 29.669405252824504 -0.5 L 25 -0.5 Z M 75.2319052528245 0.5 L 79.90131050564901 0.5 L 79.90131050564901 3.5 L 86.90131050564901 0 L 79.90131050564901 -3.5 L 79.90131050564901 -0.5 L 75.2319052528245 -0.5 Z"/><text text-anchor="middle" pointer-events="none" font-size="8px" fill="#000000" x="52.450655252824504" y="3" font-family="sans-serif">ACTED_IN</text></g><g class="relationship" transform="translate(3.072686230762653 188.39063454141046) rotate(317.70298012233246)"><path class="outline" fill="#A5ABB6" stroke="none" d="M 25 0.5 L 33.36537485649446 0.5 L 33.36537485649446 -0.5 L 25 -0.5 Z M 69.13881235649447 0.5 L 77.50418721298892 0.5 L 77.50418721298892 3.5 L 84.50418721298892 0 L 77.50418721298892 -3.5 L 77.50418721298892 -0.5 L 69.13881235649447 -0.5 Z"/><text text-anchor="middle" pointer-events="none" font-size="8px" fill="#000000" x="51.25209360649446" y="3" font-family="sans-serif">WROTE</text></g></g><g class="layer nodes"><g class="node" transform="translate(149.46825399963637,205.48017163099053)"><circle class="outline" cx="0" cy="0" r="25" fill="#C990C0" stroke="#b261a5" stroke-width="2px"/><text text-anchor="middle" pointer-events="none" font-family="sans-serif" dy="1.5625" font-size="25" fill="#FFFFFF"/><text text-anchor="middle" pointer-events="none" font-family="sans-serif" dy="1.5625" font-size="25" fill="#FFFFFF"/><text text-anchor="middle" pointer-events="none" x="0" y="0" font-size="10px" fill="#FFFFFF" font-family="sans-serif"> Joe</text><text text-anchor="middle" pointer-events="none" x="0" y="10" font-size="10px" fill="#FFFFFF" font-family="sans-serif"> Johnston</text></g><g class="node" transform="translate(84.06922124823053,114.69715903413487)"><circle class="outline" cx="0" cy="0" r="25" fill="#57C7E3" stroke="#23b3d7" stroke-width="2px"/><text text-anchor="middle" pointer-events="none" font-family="sans-serif" dy="1.5625" font-size="25" fill="#2A2C34"/><text text-anchor="middle" pointer-events="none" font-family="sans-serif" dy="1.5625" font-size="25" fill="#2A2C34"/><text text-anchor="middle" pointer-events="none" x="0" y="0" font-size="10px" fill="#2A2C34" font-family="sans-serif"> Captain</text><text text-anchor="middle" pointer-events="none" x="0" y="10" font-size="10px" fill="#2A2C34" font-family="sans-serif"> America</text></g><g class="node" transform="translate(193.14372561494187,90.1832063166465)"><circle class="outline" cx="0" cy="0" r="25" fill="#C990C0" stroke="#b261a5" stroke-width="2px"/><text text-anchor="middle" pointer-events="none" font-family="sans-serif" dy="1.5625" font-size="25" fill="#FFFFFF"/><text text-anchor="middle" pointer-events="none" x="0" y="5" font-size="10px" fill="#FFFFFF" font-family="sans-serif"> Christofer</text></g><g class="node" transform="translate(118.1795418881379,8.230097221594553)"><circle class="outline" cx="0" cy="0" r="25" fill="#C990C0" stroke="#b261a5" stroke-width="2px"/><text text-anchor="middle" pointer-events="none" font-family="sans-serif" dy="1.5625" font-size="25" fill="#FFFFFF"/><text text-anchor="middle" pointer-events="none" font-family="sans-serif" dy="1.5625" font-size="25" fill="#FFFFFF"/><text text-anchor="middle" pointer-events="none" font-family="sans-serif" dy="1.5625" font-size="25" fill="#FFFFFF"/><text text-anchor="middle" pointer-events="none" x="0" y="-5" font-size="10px" fill="#FFFFFF" font-family="sans-serif"> Samuel</text><text text-anchor="middle" pointer-events="none" x="0" y="5" font-size="10px" fill="#FFFFFF" font-family="sans-serif"> L.</text><text text-anchor="middle" pointer-events="none" x="0" y="15" font-size="10px" fill="#FFFFFF" font-family="sans-serif"> Jackson</text></g><g class="node" transform="translate(-0.3000078376068746,41.187047645679186)"><circle class="outline" cx="0" cy="0" r="25" fill="#C990C0" stroke="#b261a5" stroke-width="2px"/><text text-anchor="middle" pointer-events="none" font-family="sans-serif" dy="1.5625" font-size="25" fill="#FFFFFF"/><text text-anchor="middle" pointer-events="none" font-family="sans-serif" dy="1.5625" font-size="25" fill="#FFFFFF"/><text text-anchor="middle" pointer-events="none" x="0" y="0" font-size="10px" fill="#FFFFFF" font-family="sans-serif"> Chris</text><text text-anchor="middle" pointer-events="none" x="0" y="10" font-size="10px" fill="#FFFFFF" font-family="sans-serif"> Evans</text></g><g class="node" transform="translate(3.072686230762653,188.39063454141046)"><circle class="outline" cx="0" cy="0" r="25" fill="#C990C0" stroke="#b261a5" stroke-width="2px"/><text text-anchor="middle" pointer-events="none" font-family="sans-serif" dy="1.5625" font-size="25" fill="#FFFFFF"/><text text-anchor="middle" pointer-events="none" font-family="sans-serif" dy="1.5625" font-size="25" fill="#FFFFFF"/><text text-anchor="middle" pointer-events="none" x="0" y="0" font-size="10px" fill="#FFFFFF" font-family="sans-serif"> Stephen</text><text text-anchor="middle" pointer-events="none" x="0" y="10" font-size="10px" fill="#FFFFFF" font-family="sans-serif"> McFeely</text></g></g></svg>